<svg width="256" height="256" viewBox="0 0 256 256" fill="none" xmlns="http://www.w3.org/2000/svg">
<rect width="256" height="256" fill="white"/>
<g clip-path="url(#clip0_452_46)">
<path d="M89.125 234.234C84.25 234.234 80.125 230.105 80.125 225.225C80.125 220.345 84.25 216.215 89.125 216.215C94 216.215 98.125 220.345 98.125 225.225C98.125 230.105 94 234.234 89.125 234.234ZM89.125 218.843C85.75 218.843 82.75 221.471 82.75 225.225C82.75 228.603 85.375 231.606 89.125 231.606C92.5 231.606 95.5 228.978 95.5 225.225C95.125 221.471 92.5 218.843 89.125 218.843ZM89.125 230.855C85.75 230.855 83.125 228.228 83.125 224.849C83.125 221.471 85.75 218.843 89.125 218.843C92.5 218.843 95.125 221.471 95.125 224.849C94.75 228.228 92.125 230.855 89.125 230.855ZM89.125 221.846C87.625 221.846 86.125 223.348 86.125 224.849C86.125 226.351 87.625 227.852 89.125 227.852C90.625 227.852 92.125 226.351 92.125 224.849C92.125 223.348 90.625 221.846 89.125 221.846Z" fill="black"/>
<path d="M218.875 250H38.5C37.75 250 37 249.625 37 248.874V214.714C37 188.812 57.25 168.542 84.25 167.415C84.625 167.415 85 167.415 85.375 167.791C85.75 168.166 85.75 168.542 85.75 168.917C80.125 189.938 83.125 208.332 84.25 213.588C84.25 214.338 84.25 214.714 83.5 215.089C79.75 216.966 77.5 221.095 77.5 225.225C77.5 231.606 82.75 236.862 89.125 236.862C95.5 236.862 100.75 231.606 100.75 225.225C100.75 218.843 95.5 213.588 89.125 213.588C88.75 213.588 88.75 213.588 88.375 213.588H88C87.25 213.588 86.5 213.212 86.5 212.462C85 205.705 82.75 188.062 88.375 168.166C88.375 167.415 89.125 167.04 89.875 167.04H100.75V157.655H72.625C71.875 157.655 71.5 157.28 71.125 156.905C70.75 156.529 71.125 155.778 71.5 155.403C79.75 148.646 79.375 131.754 77.875 123.871C71.5 85.9569 79.75 67.9385 86.125 60.4308L73 28.1477C72.625 27.7723 73 27.0215 73.375 26.6462L75.625 24.0185C76 23.6431 92.125 6 129.25 6C166.375 6 182.125 23.6431 182.875 24.3938L185.125 27.0215C185.5 27.3969 185.5 28.1477 185.5 28.5231L171.625 61.5569C177.25 69.44 185.125 87.4585 179.125 124.246C177.625 132.129 177.25 149.022 185.5 155.778C185.875 156.154 186.25 156.905 185.875 157.28C185.5 157.655 185.125 158.031 184.375 158.031H156.625V167.415H170.5C170.875 167.415 171.25 167.415 171.625 167.415H172.375C173.125 167.415 173.875 168.166 173.875 168.917V183.182C173.875 183.932 173.125 184.683 172.375 184.683H171.625C160.75 184.683 152.125 193.317 152.125 203.828H155.125C155.125 202.702 155.125 201.951 155.5 200.825C155.875 199.698 155.875 198.572 156.625 197.822C157.375 195.945 158.5 194.068 160 192.566C160.75 191.815 161.5 191.065 162.25 190.689C163 189.938 164.125 189.563 164.875 189.188C166.75 188.437 169 188.062 171.25 188.062H178C180.25 188.062 182.5 188.437 184.375 189.188C185.5 189.563 186.25 189.938 187 190.689C187.75 191.44 188.875 191.815 189.25 192.566C190.75 194.068 191.875 195.945 192.625 197.822C193 198.948 193.375 199.698 193.75 200.825C194.125 201.951 194.125 202.702 194.125 203.828H198.25C198.25 193.317 189.25 184.683 178.75 184.683H178C177.25 184.683 176.5 183.932 176.5 183.182V169.292C176.5 168.917 176.5 168.542 176.875 168.166C177.25 167.791 177.625 167.791 178 167.791C202.75 171.169 220 190.314 220 214.714V248.874C220 249.625 219.625 250 218.875 250ZM39.625 247.372H217V214.338C217 192.191 201.25 174.548 178.75 170.794V181.68C190.75 182.055 200.5 191.815 200.5 204.203V204.954C200.5 205.705 199.75 206.455 199 206.455H193C192.25 206.455 191.5 205.705 191.5 204.954V203.828C191.5 203.077 191.5 201.951 191.125 201.2C191.125 200.449 190.75 199.323 190.375 198.572C189.625 197.071 188.875 195.569 187.375 194.068C186.625 193.317 186.25 192.942 185.5 192.566C184.75 192.191 184 191.815 183.25 191.44C181.75 190.689 179.875 190.314 178 190.314H171.25C169.375 190.314 167.5 190.689 166 191.44C165.25 191.815 164.5 192.191 163.75 192.566C163 192.942 162.25 193.692 161.875 194.068C160.75 195.194 159.625 196.695 158.875 198.572C158.5 199.323 158.125 200.074 158.125 201.2C158.125 201.951 157.75 203.077 157.75 203.828V204.954C157.75 205.705 157 206.455 156.25 206.455H150.25C149.5 206.455 148.75 205.705 148.75 204.954V203.828C148.75 191.815 158.5 181.68 170.5 181.305V169.668H170.125H154.75C154.375 169.668 154 169.668 153.625 169.292C153.25 168.917 153.25 168.542 153.25 168.166V156.154C153.25 155.403 154 154.652 154.75 154.652H180.625C172 144.142 175.375 123.871 175.375 122.745C181.75 85.9569 173.5 68.6892 167.875 61.5569C167.5 61.1815 167.5 60.8062 167.875 60.0554L181.75 27.0215L179.875 25.1446C179.125 24.3938 164.125 7.87692 128.125 7.87692C92.5 7.87692 77.125 24.3938 76.375 25.1446L74.5 27.0215L88 58.9292C88.375 59.3046 88 60.0554 87.625 60.4308C82 67.1877 73.375 84.4554 79.75 122.369C79.75 123.12 83.125 143.391 74.5 154.277H100.375C101.125 154.277 101.875 155.028 101.875 155.778V167.791C101.875 168.542 101.125 169.292 100.375 169.292H89.125C84.25 187.311 86.125 203.077 87.625 210.209C95.5 210.209 101.875 216.591 101.875 224.474C101.875 232.357 95.5 238.738 87.625 238.738C79.75 238.738 73.375 232.357 73.375 224.474C73.375 219.594 76 215.089 79.75 212.462C78.625 206.455 76 189.188 80.875 169.668C58 171.92 39.625 190.689 39.625 214.338V247.372ZM181.75 244.369C180.25 244.369 179.125 243.994 178 243.243C176.875 242.492 176.125 241.366 176.125 240.24C175.75 239.114 176.125 237.612 176.875 236.862C178 235.36 179.5 234.609 181.375 234.234C182.5 233.858 183.625 234.234 184.75 234.609C189.625 231.982 193 227.102 193 221.471V208.332C193 207.582 193.75 206.831 194.5 206.831H198.625C199.375 206.831 200.125 207.582 200.125 208.332V221.471C200.125 229.729 195.25 237.237 188.125 240.615C187.375 242.492 185.5 243.994 183.25 244.369C182.875 244.369 182.125 244.369 181.75 244.369ZM182.5 236.862C182.125 236.862 182.125 236.862 181.75 236.862C180.625 236.862 179.875 237.612 179.125 238.363C178.75 238.738 178.75 239.114 178.75 239.865C178.75 240.615 179.125 240.991 179.5 240.991C180.25 241.366 181.375 241.742 182.5 241.366C184 240.991 185.125 240.24 185.5 239.114C185.5 238.738 185.875 238.363 186.25 237.988C193 234.985 197.125 228.228 197.125 221.095V209.458H195.625V221.095C195.625 227.852 191.5 234.234 185.125 236.862C184.75 236.862 184.375 236.862 184 236.862C183.625 236.862 183.25 236.862 182.5 236.862ZM168.25 244.369C167.875 244.369 167.5 244.369 167.125 244.369C164.875 243.994 163 242.492 162.25 240.615C154.75 236.862 150.25 229.354 150.25 221.471V208.332C150.25 207.582 151 206.831 151.75 206.831H155.875C156.625 206.831 157.375 207.582 157.375 208.332V221.471C157.375 227.102 160.375 231.982 165.625 234.609C166.75 234.234 167.875 234.234 169 234.234C170.875 234.609 172.375 235.36 173.5 236.862C174.25 237.988 174.625 239.114 174.25 240.24C173.875 241.366 173.5 242.492 172.375 243.243C170.875 243.994 169.75 244.369 168.25 244.369ZM152.875 209.458V221.095C152.875 228.228 157 234.985 163.75 237.988C164.125 237.988 164.5 238.363 164.5 239.114C164.875 240.24 166 240.991 167.5 241.366C168.625 241.366 169.75 241.366 170.5 240.991C170.875 240.615 171.25 240.24 171.25 239.865C171.25 239.114 171.25 238.738 170.875 238.363C170.5 237.612 169.375 237.237 168.25 236.862C167.5 236.862 166.375 236.862 165.625 237.237C165.25 237.612 164.875 237.612 164.5 237.237C158.125 234.609 154 228.228 154 221.471V209.834H152.875V209.458ZM128.5 192.191C115.75 192.191 106 181.68 106 168.542V157.28C106 156.905 106.375 156.154 106.75 156.154C107.125 155.778 107.5 155.778 108.25 156.154C114.625 159.532 122.125 161.034 128.875 161.034C135.625 161.034 143.125 159.157 149.5 156.154C149.875 155.778 150.625 155.778 151 156.154C151.375 156.529 151.75 156.905 151.75 157.28V168.542C151.375 181.68 141.25 192.191 128.5 192.191ZM108.625 159.532V168.542C108.625 180.178 117.25 189.188 128.5 189.188C139.75 189.188 148.375 180.178 148.375 168.542V159.532C142 162.16 135.25 163.662 128.5 163.662C122.125 163.662 115 162.16 108.625 159.532ZM128.5 158.406C126.625 158.406 124.75 158.406 122.5 158.031C111.25 156.154 101.875 150.148 98.875 145.268C97.375 143.015 96.25 137.009 95.5 127.625V126.498H94.375H94C89.875 126.498 86.125 120.868 85 112.234C84.25 107.729 85 103.6 86.875 101.348C87.625 100.222 89.125 99.8462 91 99.4708C91.75 99.4708 92.125 99.8462 92.5 100.597C93.25 102.849 93.625 104.351 94.375 105.852C95.125 100.972 96.625 93.84 97.375 90.4615C97.75 87.8338 98.5 83.7046 99.25 79.5754C99.625 77.3231 100 75.0708 100.375 72.8185C100.375 72.4431 100.75 72.0677 101.125 71.6923C101.5 71.3169 102.25 71.6923 102.625 71.6923C105.25 73.5692 113.5 78.0738 129.625 80.7015C137.125 81.8277 146.875 82.9538 157 82.9538H158.125C158.5 82.9538 159.25 82.9538 159.625 82.9538C160.375 82.9538 160.75 83.3292 161.125 84.08C161.5 86.3323 161.875 88.2092 162.25 89.7108V90.0862C163 93.4646 164.125 100.597 165.25 105.477C166 103.975 166.375 102.474 167.125 100.222C167.125 99.4708 167.875 99.0954 168.625 99.0954C170.5 99.0954 171.625 99.8462 172.75 100.972C174.625 103.225 175.375 107.354 174.625 111.858C173.5 120.117 169.75 126.123 166 126.123H163.75V127.249C163 136.258 161.5 142.265 160.375 144.892C157.375 149.772 148 155.778 136.75 157.655C132.625 158.031 130.375 158.406 128.5 158.406ZM96.625 123.495C97.375 123.495 98.125 123.871 98.125 124.622L98.5 127.249C99.625 139.262 101.125 142.64 101.5 143.391C103.75 146.769 112 153.151 123.25 154.652C127.375 155.403 130.375 155.403 134.5 154.652C145.75 152.775 154 146.769 156.25 143.391C156.625 142.64 158.125 139.262 159.25 127.249L159.625 124.622C159.625 123.871 160.375 123.12 161.125 123.495L164.5 123.871C166.375 123.871 169.375 119.366 170.5 112.234C170.875 108.48 170.5 105.102 169 103.6C168.625 103.225 168.625 103.225 167.875 102.849C166 108.105 164.5 111.108 164.5 111.483C164.125 111.858 163.75 112.234 163 112.234C162.25 112.234 161.875 111.858 161.875 111.108C161.875 111.108 159.25 96.4677 158.125 91.5877V91.2123C157.75 90.0862 157.75 88.2092 157.375 86.7077H157H155.875C145.75 86.3323 136 85.5815 128.125 84.4554C114.25 82.2031 106 78.4492 102.25 76.1969C101.875 77.6985 101.875 79.2 101.5 80.7015C100.75 84.8308 100 88.96 99.625 91.5877C98.5 96.4677 95.875 111.108 95.875 111.108C95.875 111.858 95.5 112.234 94.75 112.234C94.375 112.234 93.625 112.234 93.25 111.483C93.25 111.483 91.375 108.48 89.875 102.849C89.5 102.849 89.125 103.225 88.75 103.6C87.25 105.102 86.875 108.48 87.25 112.234C88.375 119.742 91 123.871 93.25 123.871H93.625L96.625 123.495C96.25 123.495 96.25 123.495 96.625 123.495ZM94.375 126.498C94 126.498 94 126.498 94.375 126.498C94 126.498 94 126.498 94.375 126.498ZM164.5 61.9323H164.125C152.5 57.8031 133 57.0523 129.25 57.0523C125.5 57.0523 106 57.8031 94.375 61.9323C93.625 62.3077 92.875 61.9323 92.5 61.1815L79.375 29.6492C79 29.2738 79.375 28.5231 79.75 28.1477C80.5 27.3969 94.75 11.6308 129.25 11.6308C163.75 11.6308 178.375 27.3969 178.75 28.1477C179.125 28.5231 179.125 29.2738 179.125 29.6492L166 61.1815C165.625 61.5569 164.875 61.9323 164.5 61.9323ZM82.375 29.2738L94.75 58.9292C107.125 54.8 125.5 54.4246 129.25 54.0492H129.625C133.375 54.0492 151.75 54.8 164.125 58.9292L176.5 29.2738C173.5 26.2708 158.875 14.2585 129.625 14.2585C99.625 14.2585 85.375 26.2708 82.375 29.2738Z" fill="black"/>
<path d="M134.125 47.6677H125.5C124.75 47.6677 124 46.9169 124 46.1662V38.2831H115.375C114.625 38.2831 113.875 37.5323 113.875 36.7815V28.1477C113.875 27.3969 114.625 26.6462 115.375 26.6462H124V18.7631C124 18.0123 124.75 17.2615 125.5 17.2615H134.125C134.875 17.2615 135.625 18.0123 135.625 18.7631V26.6462H143.125C143.875 26.6462 144.625 27.3969 144.625 28.1477V36.7815C144.625 37.5323 143.875 38.2831 143.125 38.2831H135.625V46.1662C135.625 46.9169 134.875 47.6677 134.125 47.6677ZM126.625 44.6646H132.625V36.7815C132.625 36.0308 133.375 35.28 134.125 35.28H141.625V29.2738H134.125C133.375 29.2738 132.625 28.5231 132.625 27.7723V19.8892H126.625V27.7723C126.625 28.5231 125.875 29.2738 125.125 29.2738H116.5V35.28H125.125C125.875 35.28 126.625 36.0308 126.625 36.7815V44.6646Z" fill="black"/>
</g>
<defs>
<clipPath id="clip0_452_46">
<rect width="183" height="244" fill="white" transform="translate(37 6)"/>
</clipPath>
</defs>
</svg>
