<svg width="244" height="38" viewBox="0 0 244 38" fill="none" xmlns="http://www.w3.org/2000/svg">
<g clip-path="url(#clip0_90_111)">
<path d="M-0.258096 30V10.5608L3.16456 9.27499V13.5108H3.50493C4.70254 12.0988 5.83082 11.0399 6.88976 10.3339C7.94871 9.62797 8.93831 9.27499 9.85858 9.27499C11.0436 9.27499 11.9954 9.75403 12.7139 10.7121C13.4451 11.6576 13.8107 12.9246 13.8107 14.513V30H10.407V15.4395C10.407 14.2293 10.2494 13.3532 9.93422 12.8111C9.63167 12.269 9.14002 11.998 8.45927 11.998C8.20714 11.998 7.94871 12.0421 7.68397 12.1304C7.43184 12.206 7.1608 12.3258 6.87085 12.4896C6.58091 12.6787 6.28465 12.8993 5.9821 13.1515C5.69215 13.4036 5.3959 13.6872 5.09334 14.0024L5.03661 14.0591C3.78858 15.3954 3.16456 16.177 3.16456 16.4039V30H-0.258096ZM34.0607 27.901C33.2035 28.7835 32.2706 29.4327 31.2621 29.8487C30.2662 30.2647 29.1316 30.4727 27.8583 30.4727C25.2866 30.4727 23.3011 29.6029 21.9018 27.8632C20.5025 26.1109 19.8028 23.6211 19.8028 20.3939C19.8028 17.0406 20.534 14.3491 21.9963 12.3194C23.4587 10.2898 25.3749 9.27499 27.7449 9.27499C29.9636 9.27499 31.7663 10.2709 33.153 12.2627C34.5398 14.2545 35.252 16.9145 35.2898 20.2426H23.3389V20.583C23.3389 22.9278 23.7171 24.6549 24.4735 25.7642C25.2299 26.861 26.4149 27.4094 28.0285 27.4094C28.6336 27.4094 29.245 27.277 29.8628 27.0123C30.4931 26.7349 31.1297 26.3252 31.7726 25.7831L34.0607 27.901ZM23.3767 17.8411H31.8483C31.6214 16.0384 31.1486 14.6706 30.43 13.7377C29.7115 12.8048 28.766 12.3384 27.5936 12.3384C26.4338 12.3384 25.4946 12.8048 24.7761 13.7377C24.0701 14.6579 23.6037 16.0257 23.3767 17.8411ZM39.5422 13.662V11.3361H42.4732V6.83564L45.8959 3.62099V11.3361H49.3375V13.662H45.8959V24.97C45.8959 25.9911 45.9967 26.6782 46.1985 27.0312C46.4128 27.3842 46.7973 27.5607 47.3519 27.5607C47.9444 27.5607 48.5496 27.422 49.1673 27.1446C49.7976 26.8547 50.4342 26.4261 51.0772 25.8588V29.2625C50.2829 29.6911 49.5644 30.0063 48.9214 30.208C48.2785 30.4097 47.6671 30.5106 47.0872 30.5106C45.4862 30.5106 44.3138 30.0567 43.57 29.1491C42.8388 28.2288 42.4732 26.7854 42.4732 24.8187V13.662H39.5422ZM59.2439 19.8455C59.2439 22.1399 59.7103 24.0056 60.6432 25.4428C61.5887 26.8799 62.7737 27.5985 64.1982 27.5985C65.4967 27.5985 66.4737 26.9555 67.1292 25.6697C67.7847 24.3712 68.1125 22.4298 68.1125 19.8455C68.1125 17.2864 67.7847 15.3639 67.1292 14.078C66.4863 12.7922 65.5093 12.1493 64.1982 12.1493C62.7611 12.1493 61.5761 12.8678 60.6432 14.305C59.7103 15.7295 59.2439 17.5763 59.2439 19.8455ZM55.8023 36.7318V10.5608L59.2439 9.27499V13.2649H59.6031C60.6117 11.8404 61.5508 10.8193 62.4207 10.2016C63.2905 9.58385 64.2108 9.27499 65.1815 9.27499C67.1355 9.27499 68.6987 10.2268 69.8711 12.1304C71.0561 14.0339 71.6486 16.6056 71.6486 19.8455C71.6486 23.098 71.0561 25.6823 69.8711 27.5985C68.6987 29.5147 67.1355 30.4727 65.1815 30.4727C64.1982 30.4727 63.2653 30.1576 62.3829 29.5273C61.513 28.8969 60.5865 27.8569 59.6031 26.4072H59.2439V36.7318H55.8023ZM88.5327 24.9322L88.5138 19.5429C85.9421 19.6438 83.9565 20.1228 82.5572 20.9801C81.1705 21.8373 80.4772 23.0097 80.4772 24.4973C80.4772 25.531 80.7734 26.3567 81.3659 26.9745C81.9584 27.5922 82.7463 27.901 83.7296 27.901C84.3978 27.901 85.1289 27.6552 85.9232 27.1635C86.7174 26.6719 87.5872 25.9281 88.5327 24.9322ZM88.5327 27.2581H88.0978C86.9254 28.4935 85.9168 29.3382 85.0722 29.792C84.2276 30.2458 83.2884 30.4727 82.2547 30.4727C80.6789 30.4727 79.4119 29.9811 78.4538 28.9978C77.4957 28.0019 77.0167 26.6845 77.0167 25.0457C77.0167 22.7765 78.0441 20.9612 80.099 19.5997C82.1664 18.2382 84.9777 17.5322 88.5327 17.4818V15.4395C88.5327 14.3806 88.2806 13.599 87.7763 13.0947C87.2847 12.5905 86.5157 12.3384 85.4693 12.3384C84.5364 12.3384 83.591 12.5022 82.6329 12.83C81.6748 13.1452 80.6978 13.6305 79.7019 14.2861L78.1135 11.6765C79.4623 10.8571 80.7608 10.252 82.0088 9.86119C83.2569 9.47039 84.4986 9.27499 85.7341 9.27499C87.8645 9.27499 89.4277 9.69731 90.4237 10.5419C91.4322 11.3866 91.9364 12.7102 91.9364 14.513V25.9344C91.9364 26.5017 92.0562 26.9303 92.2957 27.2203C92.5352 27.4976 92.9071 27.6363 93.4114 27.6363C93.4492 27.6363 93.5122 27.63 93.6005 27.6174C93.6887 27.6048 93.7518 27.5985 93.7896 27.5985V30.3404H93.2034C91.9175 30.3404 90.8964 30.0945 90.14 29.6029C89.3836 29.0986 88.8479 28.317 88.5327 27.2581ZM109.747 15.1748C109.495 14.2041 109.098 13.4918 108.556 13.038C108.026 12.5716 107.327 12.3384 106.457 12.3384C105.095 12.3384 104.055 12.9813 103.337 14.2671C102.631 15.5404 102.278 17.3998 102.278 19.8455C102.278 22.3794 102.637 24.2767 103.356 25.5373C104.087 26.7854 105.184 27.4094 106.646 27.4094C107.705 27.4094 108.512 27.1005 109.066 26.4828C109.634 25.8651 109.98 24.9196 110.106 23.6463L113.264 25.0078C112.937 26.7854 112.186 28.1405 111.014 29.0734C109.854 30.0063 108.335 30.4727 106.457 30.4727C104.011 30.4727 102.114 29.5462 100.765 27.693C99.4161 25.8399 98.7417 23.224 98.7417 19.8455C98.7417 16.4796 99.4161 13.8763 100.765 12.0358C102.114 10.1953 104.011 9.27499 106.457 9.27499C107.97 9.27499 109.262 9.65318 110.333 10.4096C111.405 11.166 112.243 12.2879 112.848 13.7755L109.747 15.1748ZM131.718 27.901C130.861 28.7835 129.928 29.4327 128.919 29.8487C127.923 30.2647 126.789 30.4727 125.515 30.4727C122.944 30.4727 120.958 29.6029 119.559 27.8632C118.16 26.1109 117.46 23.6211 117.46 20.3939C117.46 17.0406 118.191 14.3491 119.653 12.3194C121.116 10.2898 123.032 9.27499 125.402 9.27499C127.621 9.27499 129.423 10.2709 130.81 12.2627C132.197 14.2545 132.909 16.9145 132.947 20.2426H120.996V20.583C120.996 22.9278 121.374 24.6549 122.131 25.7642C122.887 26.861 124.072 27.4094 125.686 27.4094C126.291 27.4094 126.902 27.277 127.52 27.0123C128.15 26.7349 128.787 26.3252 129.43 25.7831L131.718 27.901ZM121.034 17.8411H129.505C129.279 16.0384 128.806 14.6706 128.087 13.7377C127.369 12.8048 126.423 12.3384 125.251 12.3384C124.091 12.3384 123.152 12.8048 122.433 13.7377C121.727 14.6579 121.261 16.0257 121.034 17.8411Z" fill="#0A74D6"/>
<path d="M138.75 30V2.20277L142.154 0.954729V13.5108H142.456C143.654 12.0988 144.782 11.0399 145.841 10.3339C146.9 9.62797 147.89 9.27499 148.81 9.27499C149.995 9.27499 150.947 9.75403 151.665 10.7121C152.396 11.6576 152.762 12.9246 152.762 14.513V30H149.358V15.4395C149.358 14.2041 149.207 13.3217 148.905 12.7922C148.615 12.2627 148.129 11.998 147.448 11.998C147.196 11.998 146.938 12.0421 146.673 12.1304C146.421 12.206 146.15 12.3258 145.86 12.4896C145.57 12.6787 145.274 12.8993 144.971 13.1515C144.681 13.4036 144.385 13.6872 144.083 14.0024L144.045 14.0591C142.784 15.3954 142.154 16.177 142.154 16.4039V30H138.75ZM172.936 27.901C172.079 28.7835 171.146 29.4327 170.138 29.8487C169.142 30.2647 168.007 30.4727 166.734 30.4727C164.162 30.4727 162.177 29.6029 160.778 27.8632C159.378 26.1109 158.679 23.6211 158.679 20.3939C158.679 17.0406 159.41 14.3491 160.872 12.3194C162.334 10.2898 164.251 9.27499 166.621 9.27499C168.839 9.27499 170.642 10.2709 172.029 12.2627C173.415 14.2545 174.128 16.9145 174.166 20.2426H162.215V20.583C162.215 22.9278 162.593 24.6549 163.349 25.7642C164.106 26.861 165.291 27.4094 166.904 27.4094C167.509 27.4094 168.121 27.277 168.738 27.0123C169.369 26.7349 170.005 26.3252 170.648 25.7831L172.936 27.901ZM162.252 17.8411H170.724C170.497 16.0384 170.024 14.6706 169.306 13.7377C168.587 12.8048 167.642 12.3384 166.469 12.3384C165.31 12.3384 164.37 12.8048 163.652 13.7377C162.946 14.6579 162.479 16.0257 162.252 17.8411ZM190.501 24.9322L190.482 19.5429C187.911 19.6438 185.925 20.1228 184.526 20.9801C183.139 21.8373 182.446 23.0097 182.446 24.4973C182.446 25.531 182.742 26.3567 183.334 26.9745C183.927 27.5922 184.715 27.901 185.698 27.901C186.366 27.901 187.098 27.6552 187.892 27.1635C188.686 26.6719 189.556 25.9281 190.501 24.9322ZM190.501 27.2581H190.066C188.894 28.4935 187.885 29.3382 187.041 29.792C186.196 30.2458 185.257 30.4727 184.223 30.4727C182.647 30.4727 181.38 29.9811 180.422 28.9978C179.464 28.0019 178.985 26.6845 178.985 25.0457C178.985 22.7765 180.013 20.9612 182.068 19.5997C184.135 18.2382 186.946 17.5322 190.501 17.4818V15.4395C190.501 14.3806 190.249 13.599 189.745 13.0947C189.253 12.5905 188.484 12.3384 187.438 12.3384C186.505 12.3384 185.56 12.5022 184.601 12.83C183.643 13.1452 182.666 13.6305 181.67 14.2861L180.082 11.6765C181.431 10.8571 182.729 10.252 183.977 9.86119C185.225 9.47039 186.467 9.27499 187.703 9.27499C189.833 9.27499 191.396 9.69731 192.392 10.5419C193.401 11.3866 193.905 12.7102 193.905 14.513V25.9344C193.905 26.5017 194.025 26.9303 194.264 27.2203C194.504 27.4976 194.876 27.6363 195.38 27.6363C195.418 27.6363 195.481 27.63 195.569 27.6174C195.657 27.6048 195.72 27.5985 195.758 27.5985V30.3404H195.172C193.886 30.3404 192.865 30.0945 192.109 29.6029C191.352 29.0986 190.816 28.317 190.501 27.2581ZM202.469 30V2.20277L205.873 0.954729V30H202.469ZM213.207 13.662V11.3361H216.138V6.83564L219.561 3.62099V11.3361H223.002V13.662H219.561V24.97C219.561 25.9911 219.662 26.6782 219.863 27.0312C220.078 27.3842 220.462 27.5607 221.017 27.5607C221.609 27.5607 222.215 27.422 222.832 27.1446C223.463 26.8547 224.099 26.4261 224.742 25.8588V29.2625C223.948 29.6911 223.229 30.0063 222.586 30.208C221.944 30.4097 221.332 30.5106 220.752 30.5106C219.151 30.5106 217.979 30.0567 217.235 29.1491C216.504 28.2288 216.138 26.7854 216.138 24.8187V13.662H213.207ZM229.978 30V2.20277L233.382 0.954729V13.5108H233.684C234.882 12.0988 236.01 11.0399 237.069 10.3339C238.128 9.62797 239.118 9.27499 240.038 9.27499C241.223 9.27499 242.175 9.75403 242.893 10.7121C243.624 11.6576 243.99 12.9246 243.99 14.513V30H240.586V15.4395C240.586 14.2041 240.435 13.3217 240.132 12.7922C239.842 12.2627 239.357 11.998 238.676 11.998C238.424 11.998 238.166 12.0421 237.901 12.1304C237.649 12.206 237.378 12.3258 237.088 12.4896C236.798 12.6787 236.502 12.8993 236.199 13.1515C235.909 13.4036 235.613 13.6872 235.31 14.0024L235.273 14.0591C234.012 15.3954 233.382 16.177 233.382 16.4039V30H229.978Z" fill="#595959"/>
</g>
<defs>
<clipPath id="clip0_90_111">
<rect width="244" height="38" fill="white"/>
</clipPath>
</defs>
</svg>
